<?xml version="1.0" encoding="UTF-8"?>
<!DOCTYPE svg PUBLIC "-//W3C//DTD SVG 1.1//EN" "http://www.w3.org/Graphics/SVG/1.1/DTD/svg11.dtd">
<!-- Creator: CorelDRAW -->
<svg xmlns="http://www.w3.org/2000/svg" xml:space="preserve" width="2048px" height="2048px" style="shape-rendering:geometricPrecision; text-rendering:geometricPrecision; image-rendering:optimizeQuality; fill-rule:evenodd; clip-rule:evenodd"
viewBox="0 0 2048 2048"
 xmlns:xlink="http://www.w3.org/1999/xlink">
 <defs>
  <style type="text/css">
   <![CDATA[
    .fil2 {fill:none}
    .fil10 {fill:#005E60}
    .fil4 {fill:#006064}
    .fil11 {fill:#223539}
    .fil5 {fill:#263238}
    .fil12 {fill:#4C6B74}
    .fil6 {fill:#546E7A}
    .fil9 {fill:#A0DBE0}
    .fil3 {fill:#B2EBF2}
    .fil14 {fill:#C00806}
    .fil8 {fill:#D50000}
    .fil1 {fill:#D81B60}
    .fil0 {fill:#EC407A}
    .fil13 {fill:#C00806;fill-rule:nonzero}
    .fil7 {fill:#D50000;fill-rule:nonzero}
   ]]>
  </style>
   <clipPath id="id0">
    <path d="M1024 -0.0011811c565.541,0 1024,458.461 1024,1024 0,565.541 -458.461,1024 -1024,1024 -565.541,0 -1024,-458.461 -1024,-1024 0,-565.541 458.461,-1024 1024,-1024z"/>
   </clipPath>
 </defs>
 <g id="Layer_x0020_1">
  <metadata id="CorelCorpID_0Corel-Layer"/>
  <path class="fil0" d="M1024 -0.0011811c565.541,0 1024,458.461 1024,1024 0,565.541 -458.461,1024 -1024,1024 -565.541,0 -1024,-458.461 -1024,-1024 0,-565.541 458.461,-1024 1024,-1024z"/>
  <g style="clip-path:url(#id0)">
   <g id="_466416136">
    <g>
     <polygon id="_4625721281" class="fil1" points="1447.44,657.524 2583.32,1793.41 2592,1803.67 2600.44,1814.15 2608.63,1824.83 2616.56,1835.71 2624.24,1846.78 2631.66,1858.05 2638.81,1869.5 2645.69,1881.14 2652.29,1892.96 2658.62,1904.94 2664.66,1917.1 2670.41,1929.42 2675.87,1941.91 2681.04,1954.55 2685.9,1967.34 2690.46,1980.28 2694.7,1993.36 2698.64,2006.58 2702.25,2019.93 2705.54,2033.42 2708.5,2047.02 2711.13,2060.75 2713.43,2074.6 2715.38,2088.56 2716.99,2102.63 2718.25,2116.8 2719.15,2131.07 2719.7,2145.43 2719.88,2159.88 1584,1024 1583.82,1009.55 1583.27,995.183 1582.37,980.915 1581.11,966.745 1579.5,952.678 1577.55,938.72 1575.25,924.872 1572.62,911.142 1569.66,897.533 1566.37,884.05 1562.76,870.695 1558.82,857.475 1554.58,844.394 1550.02,831.455 1545.16,818.665 1539.99,806.025 1534.53,793.542 1528.78,781.219 1522.74,769.062 1516.41,757.073 1509.81,745.258 1502.93,733.622 1495.78,722.168 1488.36,710.901 1480.68,699.825 1472.75,688.946 1464.56,678.265 1456.12,667.79 "/>
     <polygon id="_462581440" class="fil1" points="1584,1024 2719.88,2159.88 2719.7,2174.34 2719.15,2188.7 2718.25,2202.97 2716.99,2217.14 2715.38,2231.2 2713.43,2245.16 2711.13,2259.01 2708.5,2272.74 2705.54,2286.35 2702.25,2299.83 2698.64,2313.19 2694.7,2326.41 2690.46,2339.49 2685.9,2352.43 2681.04,2365.22 2675.87,2377.86 2670.41,2390.34 2664.66,2402.66 2658.62,2414.82 2652.29,2426.81 2645.69,2438.62 2638.81,2450.26 2631.66,2461.71 2624.24,2472.98 2616.56,2484.06 2608.63,2494.94 2600.44,2505.62 2592,2516.09 2583.32,2526.36 2574.4,2536.41 2565.25,2546.25 2555.86,2555.86 1419.98,1419.98 1429.36,1410.36 1438.52,1400.53 1447.44,1390.48 1456.12,1380.21 1464.56,1369.73 1472.75,1359.05 1480.68,1348.18 1488.36,1337.1 1495.78,1325.83 1502.93,1314.38 1509.81,1302.74 1516.41,1290.93 1522.74,1278.94 1528.78,1266.78 1534.53,1254.46 1539.99,1241.97 1545.16,1229.33 1550.02,1216.54 1554.58,1203.61 1558.82,1190.52 1562.76,1177.3 1566.37,1163.95 1569.66,1150.47 1572.62,1136.86 1575.25,1123.13 1577.55,1109.28 1579.5,1095.32 1581.11,1081.26 1582.37,1067.09 1583.27,1052.82 1583.82,1038.45 "/>
     <polygon id="_462574792" class="fil1" points="1419.98,1419.98 2555.86,2555.86 2546.25,2565.25 2536.41,2574.4 2526.36,2583.32 2516.09,2592 2505.62,2600.44 2494.94,2608.63 2484.06,2616.56 2472.98,2624.24 2461.71,2631.66 2450.26,2638.81 2438.62,2645.69 2426.81,2652.29 2414.82,2658.62 2402.66,2664.66 2390.34,2670.41 2377.86,2675.87 2365.22,2681.04 2352.43,2685.9 2339.49,2690.46 2326.41,2694.71 2313.19,2698.64 2299.83,2702.25 2286.35,2705.54 2272.74,2708.5 2259.01,2711.14 2245.16,2713.43 2231.2,2715.38 2217.14,2716.99 2202.97,2718.25 2188.7,2719.15 2174.33,2719.7 2159.88,2719.88 1024,1584 1038.45,1583.82 1052.82,1583.27 1067.09,1582.37 1081.26,1581.11 1095.32,1579.5 1109.28,1577.55 1123.13,1575.25 1136.86,1572.62 1150.47,1569.66 1163.95,1566.37 1177.3,1562.76 1190.52,1558.82 1203.61,1554.58 1216.54,1550.02 1229.33,1545.16 1241.97,1539.99 1254.46,1534.53 1266.78,1528.78 1278.94,1522.74 1290.93,1516.41 1302.74,1509.81 1314.38,1502.93 1325.83,1495.78 1337.1,1488.36 1348.18,1480.68 1359.05,1472.75 1369.73,1464.56 1380.21,1456.12 1390.48,1447.44 1400.53,1438.52 1410.36,1429.36 "/>
     <polygon id="_462574528" class="fil1" points="1024,1584 2159.88,2719.88 2145.43,2719.7 2131.06,2719.15 2116.8,2718.25 2102.63,2716.99 2088.56,2715.38 2074.6,2713.43 2060.75,2711.14 2047.02,2708.5 2033.41,2705.54 2019.93,2702.25 2006.58,2698.64 1993.36,2694.71 1980.28,2690.46 1967.34,2685.9 1954.55,2681.04 1941.91,2675.87 1929.42,2670.41 1917.1,2664.66 1904.94,2658.62 1892.95,2652.29 1881.14,2645.69 1869.5,2638.81 1858.05,2631.66 1846.78,2624.24 1835.71,2616.56 1824.83,2608.63 1814.15,2600.44 1803.67,2592 1793.4,2583.32 657.524,1447.44 667.79,1456.12 678.265,1464.56 688.946,1472.75 699.825,1480.68 710.901,1488.36 722.168,1495.78 733.622,1502.93 745.258,1509.81 757.073,1516.41 769.062,1522.74 781.219,1528.78 793.542,1534.53 806.025,1539.99 818.665,1545.16 831.455,1550.02 844.394,1554.58 857.475,1558.82 870.695,1562.76 884.05,1566.37 897.533,1569.66 911.142,1572.62 924.872,1575.25 938.72,1577.55 952.678,1579.5 966.745,1581.11 980.915,1582.37 995.183,1583.27 1009.55,1583.82 "/>
    </g>
    <path id="_466415944" class="fil1" d="M1024 464c154.636,0 294.637,62.6812 395.978,164.022 101.341,101.341 164.022,241.342 164.022,395.978 0,154.636 -62.6812,294.637 -164.022,395.978 -101.341,101.341 -241.342,164.022 -395.978,164.022 -154.636,0 -294.637,-62.6812 -395.978,-164.022 -101.341,-101.341 -164.022,-241.342 -164.022,-395.978 0,-154.636 62.6812,-294.637 164.022,-395.978 101.341,-101.341 241.342,-164.022 395.978,-164.022z"/>
   </g>
  </g>
  <path class="fil2" d="M1024 -0.0011811c565.541,0 1024,458.461 1024,1024 0,565.541 -458.461,1024 -1024,1024 -565.541,0 -1024,-458.461 -1024,-1024 0,-565.541 458.461,-1024 1024,-1024z"/>
  <circle class="fil3" cx="1024" cy="1024" r="489.996"/>
  <path class="fil4" d="M1024 464c154.636,0 294.637,62.6812 395.978,164.022 101.341,101.341 164.022,241.342 164.022,395.978 0,154.636 -62.6812,294.637 -164.022,395.978 -101.341,101.341 -241.342,164.022 -395.978,164.022 -154.636,0 -294.637,-62.6812 -395.978,-164.022 -101.341,-101.341 -164.022,-241.342 -164.022,-395.978 0,-154.636 62.6812,-294.637 164.022,-395.978 101.341,-101.341 241.342,-164.022 395.978,-164.022zm0 70.004c270.617,0 489.996,219.379 489.996,489.996 0,270.617 -219.379,489.996 -489.996,489.996 -270.617,0 -489.996,-219.379 -489.996,-489.996 0,-270.617 219.379,-489.996 489.996,-489.996z"/>
  <path class="fil5" d="M1024 603.995l0 0c7.33347,0 13.3311,5.25119 13.3311,11.6658l0 404.932c0,6.41457 -6,11.6658 -13.3311,11.6658l0 0c-7.33111,0 -13.3311,-5.24882 -13.3311,-11.6658l0 -404.932c0,-6.41693 5.99764,-11.6658 13.3311,-11.6658z"/>
  <path class="fil6" d="M1008.55 1015.66l0 0c3.48307,-6.45355 10.9524,-9.23859 16.598,-6.19252l286.503 154.61c5.64449,3.04607 7.41615,10.8213 3.93544,17.2713l-0.0011811 0.0011811c-3.48071,6.45119 -10.95,9.23977 -16.5969,6.19134l-286.503 -154.609c-5.64685,-3.04725 -7.41851,-10.8189 -3.93544,-17.2725z"/>
  <circle class="fil5" cx="1024" cy="1024" r="35"/>
  <path class="fil7" d="M661.655 1238.43c-2.61851,1.50354 -5.96221,0.6 -7.46575,-2.01851 -1.50354,-2.61851 -0.6,-5.96221 2.01851,-7.46575l450.905 -258.99c2.61732,-1.50354 5.96221,-0.6 7.46575,2.01851 1.50354,2.61851 0.6,5.96221 -2.01851,7.46575l-450.905 258.99z"/>
  <circle class="fil8" transform="matrix(0.333757 -1.23457 1.23457 0.333757 1024 1024)" r="14.0622"/>
  <path class="fil9" d="M1024 534.004l0.0011811 0 0 979.992 -0.0011811 0c-270.617,0 -489.996,-219.379 -489.996,-489.996 0,-270.617 219.379,-489.996 489.996,-489.996z"/>
  <path class="fil10" d="M1024 464l0.0011811 0 0 70.004 -0.0011811 0c-270.617,0 -489.996,219.379 -489.996,489.996 0,270.617 219.379,489.996 489.996,489.996l0.0011811 0 0 70.004 -0.0011811 0c-154.636,0 -294.637,-62.6812 -395.978,-164.022 -101.341,-101.341 -164.022,-241.342 -164.022,-395.978 0,-154.636 62.6812,-294.637 164.022,-395.978 101.341,-101.341 241.342,-164.022 395.978,-164.022z"/>
  <path class="fil11" d="M1024 603.995l0.00236221 0 0 0 0 428.263 0 0 -0.00236221 0c-7.32993,0 -13.3299,-5.24882 -13.3299,-11.6658l0 -404.932c0,-6.41693 5.99764,-11.6658 13.3299,-11.6658z"/>
  <path class="fil12" d="M1008.55 1015.66l0.0011811 -0.00236221c3.25158,-6.02481 9.98032,-8.85001 15.4524,-6.71812l0 30.2079 -11.5169 -6.21615c-5.64804,-3.04725 -7.41851,-10.8189 -3.93662,-17.2713z"/>
  <path class="fil11" d="M1024 989l0.0011811 0 0 69.9993 -0.0011811 0c-19.3299,0 -34.9996,-15.6697 -34.9996,-34.9996 0,-19.3299 15.6697,-34.9996 34.9996,-34.9996z"/>
  <path class="fil13" d="M661.655 1238.43c-2.61851,1.50354 -5.96221,0.6 -7.46575,-2.01851 -1.50354,-2.61851 -0.598819,-5.96221 2.01851,-7.46575l367.793 -211.252 0 12.6118 -362.346 208.125z"/>
  <path class="fil14" d="M1006.64 1019.31c2.16969,-8.02087 9.43229,-13.2992 17.3622,-13.2933l0 35.974c-1.54961,-0.0011811 -3.12638,-0.20315 -4.69489,-0.625985 -9.5882,-2.59252 -15.2587,-12.4654 -12.6673,-22.0547z"/>
 </g>
</svg>
